# xmcd
#
# Track frame offsets:
#  150
#  16874
#  36050
#  53997
#  79581
#  90130
#  106782
#  122679
#  145705
#
# Disc length: 2214 seconds
#
# Revision: 0
# Processed by: cddbd v1.5.1PL0 Copyright (c) Steve Scherf et al.
# Submitted via: Collectorz.com_Music_Collector 6.9
#
DISCID=5c08a409
DTITLE=Bluesology - Too Much
DYEAR=2004
DGENRE=General Blues
TTITLE0=Call Me
TTITLE1=Woodoo Idol
TTITLE2=Too Much Whiskey
TTITLE3=Decoration Day
TTITLE4=Running Out of Air
TTITLE5=What Have I Done
TTITLE6=Bag of Lies
TTITLE7=Down Town Party
TTITLE8=Loneliness Is What I Don't Need
EXTD=
EXTT0=
EXTT1=
EXTT2=
EXTT3=
EXTT4=
EXTT5=
EXTT6=
EXTT7=
EXTT8=
PLAYORDER=
